<svg width="56" height="56" viewBox="0 0 14 14" fill="none" xmlns="http://www.w3.org/2000/svg">
<path d="M11.8516 2.42413C10.9593 2.01469 10.0024 1.71304 9.00194 1.54028C8.98372 1.53694 8.96552 1.54527 8.95613 1.56194C8.83307 1.78082 8.69676 2.06636 8.6013 2.29079C7.52524 2.12969 6.45469 2.12969 5.40069 2.29079C5.30521 2.06137 5.16395 1.78082 5.04033 1.56194C5.03095 1.54583 5.01275 1.5375 4.99453 1.54028C3.99461 1.71249 3.03774 2.01414 2.14488 2.42413C2.13715 2.42746 2.13052 2.43302 2.12613 2.44023C0.311145 5.15178 -0.186054 7.79667 0.0578551 10.4088C0.0589587 10.4216 0.0661324 10.4338 0.0760655 10.4416C1.27354 11.3209 2.4335 11.8548 3.57191 12.2087C3.59013 12.2142 3.60944 12.2076 3.62103 12.1926C3.89032 11.8248 4.13037 11.4371 4.33619 11.0293C4.34834 11.0054 4.33675 10.9771 4.31192 10.9676C3.93116 10.8232 3.5686 10.6471 3.21984 10.4471C3.19226 10.431 3.19005 10.3915 3.21543 10.3727C3.28882 10.3177 3.36223 10.2604 3.43231 10.2027C3.44499 10.1921 3.46265 10.1899 3.47756 10.1966C5.76875 11.2426 8.24923 11.2426 10.5134 10.1966C10.5283 10.1893 10.546 10.1916 10.5592 10.2021C10.6293 10.2599 10.7027 10.3177 10.7766 10.3727C10.802 10.3915 10.8003 10.431 10.7728 10.4471C10.424 10.651 10.0614 10.8232 9.68013 10.9671C9.65531 10.9765 9.64426 11.0054 9.65641 11.0293C9.86665 11.4365 10.1067 11.8243 10.371 12.192C10.3821 12.2076 10.4019 12.2142 10.4201 12.2087C11.5641 11.8548 12.724 11.3209 13.9215 10.4416C13.932 10.4338 13.9386 10.4221 13.9397 10.4093C14.2316 7.38945 13.4508 4.76625 11.8698 2.44079C11.8659 2.43302 11.8593 2.42746 11.8516 2.42413ZM4.67835 8.81828C3.98854 8.81828 3.42016 8.18499 3.42016 7.40724C3.42016 6.62949 3.97752 5.9962 4.67835 5.9962C5.38468 5.9962 5.94755 6.63505 5.93651 7.40724C5.93651 8.18499 5.37915 8.81828 4.67835 8.81828ZM9.33027 8.81828C8.64048 8.81828 8.0721 8.18499 8.0721 7.40724C8.0721 6.62949 8.62944 5.9962 9.33027 5.9962C10.0366 5.9962 10.5995 6.63505 10.5885 7.40724C10.5885 8.18499 10.0366 8.81828 9.33027 8.81828Z" fill="#737373"/>
</svg>
