<svg width="56" height="56" viewBox="0 0 14 14" fill="none" xmlns="http://www.w3.org/2000/svg"><path d="M10.0772 5.19572C11.0368 5.88572 12.2054 6.29272 13.4687 6.29272V4.08872C13.2274 4.08872 12.9874 4.06472 12.7527 4.01872V5.77272C11.4894 5.77272 10.3221 5.36572 9.36143 4.67572V9.21472C9.36143 11.4867 7.50743 13.3334 5.22743 13.3334C4.33143 13.3334 3.50343 13.0507 2.82343 12.5694C3.60143 13.3747 4.68543 13.8534 5.88143 13.8534C8.16143 13.8534 10.0167 12.0067 10.0167 9.73472V5.19572H10.0772ZM10.9467 3.17472C10.4654 2.65072 10.1414 1.98072 10.0514 1.24072V0.933724H9.42943C9.58943 1.84572 10.1507 2.62372 10.9467 3.17472ZM4.27543 10.8534C3.99143 10.4827 3.83743 10.0294 3.83743 9.56072C3.83743 8.37672 4.79543 7.42272 5.98543 7.42272C6.20543 7.42272 6.42143 7.45672 6.62943 7.52072V5.27072C6.39343 5.23872 6.15343 5.21872 5.91343 5.21872C5.88143 5.21872 5.85143 5.22072 5.82143 5.22072V6.99872C5.61143 6.93472 5.39743 6.90072 5.17543 6.90072C3.98543 6.90072 3.02743 7.85672 3.02743 9.04072C3.02743 9.86472 3.53943 10.5694 4.27543 10.8534Z" fill="#737373"/><path d="M9.36209 4.67405C10.3228 5.36405 11.4901 5.77105 12.7534 5.77105V4.01705C12.1168 3.87905 11.5488 3.57305 11.0921 3.15305C10.2961 2.60205 9.73476 1.82405 9.57476 0.912048H7.94876V9.71305C7.94276 10.8904 6.98876 11.8384 5.80876 11.8384C5.07676 11.8384 4.43276 11.4864 4.02676 10.9437C3.29076 10.6597 2.77876 9.95505 2.77876 9.13105C2.77876 7.94705 3.73676 6.99105 4.92676 6.99105C5.15276 6.99105 5.37076 7.02505 5.57676 7.08905V5.31105C3.34276 5.35705 1.54276 7.18305 1.54276 9.42505C1.54276 10.5437 1.99276 11.5597 2.71876 12.3037C3.39876 12.7851 4.22676 13.0677 5.12276 13.0677C7.40276 13.0677 9.25676 11.2211 9.25676 8.94905V4.67405H9.36209Z" fill="#737373"/></svg>
