<svg width="14" height="14" viewBox="0 0 14 14" fill="none" xmlns="http://www.w3.org/2000/svg">
<path d="M10.3204 6.48873C10.2601 6.45983 10.1988 6.43201 10.1368 6.40537C10.0287 4.41424 8.94071 3.27432 7.11385 3.26266C7.10557 3.26261 7.09734 3.26261 7.08906 3.26261C5.99636 3.26261 5.08758 3.72902 4.52823 4.57776L5.53295 5.26698C5.95081 4.633 6.60659 4.49785 7.08955 4.49785C7.09512 4.49785 7.10072 4.49785 7.10624 4.4979C7.70776 4.50174 8.16167 4.67663 8.45545 5.01769C8.66924 5.26599 8.81223 5.60912 8.88303 6.04215C8.34972 5.95151 7.77295 5.92364 7.15637 5.95899C5.41947 6.05904 4.30285 7.07203 4.37785 8.47963C4.4159 9.19363 4.7716 9.80788 5.37939 10.2091C5.89326 10.5483 6.5551 10.7142 7.24294 10.6767C8.15131 10.6269 8.86393 10.2803 9.36107 9.64658C9.73864 9.16533 9.97744 8.54168 10.0829 7.75585C10.5158 8.01711 10.8366 8.36092 11.0138 8.77421C11.3151 9.47676 11.3327 10.6313 10.3907 11.5725C9.56531 12.397 8.57321 12.7537 7.07386 12.7647C5.41068 12.7524 4.15284 12.219 3.33503 11.1794C2.56921 10.2059 2.17344 8.79973 2.15867 7C2.17344 5.20026 2.56921 3.79412 3.33503 2.82061C4.15284 1.78098 5.41066 1.2476 7.07384 1.23524C8.74908 1.2477 10.0288 1.78364 10.878 2.82829C11.2943 3.34057 11.6082 3.98481 11.8152 4.73596L12.9925 4.42183C12.7417 3.49724 12.347 2.70052 11.8099 2.03977C10.7213 0.700487 9.12927 0.0142295 7.07794 0H7.06973C5.02258 0.0141801 3.44834 0.703048 2.39077 2.04745C1.44968 3.2438 0.964238 4.90844 0.947927 6.99508L0.947876 7L0.947927 7.00492C0.964238 9.09154 1.44968 10.7562 2.39077 11.9526C3.44834 13.2969 5.02258 13.9859 7.06973 14H7.07794C8.89798 13.9874 10.1809 13.5109 11.2377 12.455C12.6204 11.0736 12.5788 9.34201 12.1231 8.27903C11.7961 7.51676 11.1728 6.89764 10.3204 6.48873ZM7.17791 9.44322C6.41666 9.48609 5.6258 9.14441 5.58681 8.41254C5.5579 7.8699 5.97299 7.2644 7.22463 7.19227C7.36797 7.184 7.50863 7.17996 7.6468 7.17996C8.10144 7.17996 8.52676 7.22412 8.91344 7.30866C8.76921 9.10984 7.92323 9.40231 7.17791 9.44322Z" fill="#737373"/>
</svg>
