<svg width="172" height="40" viewBox="0 0 86 20" fill="none" xmlns="http://www.w3.org/2000/svg">
<g clip-path="url(#clip0_64_1219)">
<path d="M38.7452 19.7062H35.3506L30.9655 5.5292H34.5023L37.1895 15.7361L40.019 5.5292H43.4136L46.384 15.7361L49.0712 5.5292H52.4658L48.0806 19.7062H44.6861L41.7156 9.49926L38.7452 19.7062ZM57.5555 19.99C54.726 19.99 52.463 18.2882 52.463 15.7375C52.463 13.1869 54.3019 11.8819 56.9891 11.485L59.8186 11.0599C60.6669 10.9187 61.5166 10.6348 61.5166 9.64191C61.5166 8.36657 60.2441 7.79882 59.1112 7.79882C57.4132 7.79882 56.2817 8.64904 56.1408 10.3509H52.7462C52.7462 7.23247 55.4334 5.24674 59.1112 5.24674C62.789 5.24674 65.0521 7.23106 65.0521 10.6334V19.7062H61.7984V18.0043C60.8078 19.4223 59.2521 19.9886 57.5555 19.9886V19.99ZM58.2629 17.438C59.9609 17.438 61.6575 16.3039 61.6575 14.3195V13.0442L58.9703 13.4693C57.2723 13.725 55.9999 14.1783 55.9999 15.5963C55.9999 16.8716 57.1314 17.4394 58.2629 17.4394V17.438ZM74.3988 19.99C72.023 19.99 70.4941 18.8559 70.0136 18.0057V19.7076H66.7599V0.425042H70.1545V7.22965C70.5786 6.37942 72.0216 5.24532 74.3973 5.24532C78.3584 5.24532 80.9033 8.36375 80.9033 12.6177C80.9033 17.1541 78.357 19.99 74.3973 19.99H74.3988ZM73.8323 17.1541C76.2363 17.1541 77.5101 15.4522 77.5101 12.6177C77.5101 10.3495 76.2377 8.10953 73.8323 8.10953C71.286 8.10953 70.1545 10.3495 70.1545 12.6177C70.1545 14.8859 71.286 17.1541 73.8323 17.1541ZM84.0188 3.96999C82.8873 3.96999 82.039 3.11977 82.039 1.98567C82.039 0.851565 82.8873 0.00134277 84.0188 0.00134277C85.1503 0.00134277 85.9986 0.851565 85.9986 1.98567C85.9986 3.11977 85.1503 3.96999 84.0188 3.96999ZM85.7168 19.7062H82.3222V5.5292H85.7168V19.7062Z" fill="#737373"/>
<path d="M7.88825 9.20836C7.88825 7.0249 6.12263 5.25525 3.94413 5.25525C1.76563 5.25525 0 7.0249 0 9.20836C0 11.3918 1.76563 13.1615 3.94413 13.1615C6.12263 13.1615 7.88825 11.3918 7.88825 9.20836Z" fill="#737373"/>
<path d="M15.7624 9.21691C15.7624 7.03344 13.9968 5.26379 11.8183 5.26379C9.63977 5.26379 7.87415 7.03344 7.87415 9.21691C7.87415 11.4004 9.63977 13.17 11.8183 13.17C13.9968 13.17 15.7624 11.4004 15.7624 9.21691Z" fill="#737373"/>
<path d="M23.6451 9.20836C23.6451 7.0249 21.8795 5.25525 19.701 5.25525C17.5225 5.25525 15.7568 7.0249 15.7568 9.20836C15.7568 11.3918 17.5225 13.1615 19.701 13.1615C21.8795 13.1615 23.6451 11.3918 23.6451 9.20836Z" fill="#737373"/>
<path d="M19.6995 16.0469C19.6995 13.8634 17.9338 12.0938 15.7553 12.0938C13.5768 12.0938 11.8112 13.8634 11.8112 16.0469C11.8112 18.2303 13.5768 20 15.7553 20C17.9338 20 19.6995 18.2303 19.6995 16.0469Z" fill="#737373"/>
<path d="M11.8254 16.0342C11.8254 13.8507 10.0598 12.0811 7.88126 12.0811C5.70276 12.0811 3.93713 13.8507 3.93713 16.0342C3.93713 18.2176 5.70276 19.9873 7.88126 19.9873C10.0598 19.9873 11.8254 18.2176 11.8254 16.0342Z" fill="#737373"/>
</g>
<defs>
<clipPath id="clip0_64_1219">
<rect width="86" height="20" fill="white"/>
</clipPath>
</defs>
</svg>
